<svg width="65" height="44" viewBox="0 0 65 44" fill="none" xmlns="http://www.w3.org/2000/svg">
  <path fillRule="evenodd" clipRule="evenodd" d="M2.73689 0C1.22535 0 0 1.23486 0 2.75813V40.2687C0 41.792 1.22535 43.0269 2.73689 43.0269H61.3063C62.8178 43.0269 64.0431 41.792 64.0431 40.2687V2.75813C64.0431 1.23486 62.8178 0 61.3063 0H2.73689ZM4.10533 38.8628C4.10533 20.1314 18.8106 4.86124 37.2217 4.1372V38.8628H4.10533ZM45.4323 38.8628C42.4092 38.8628 39.9585 36.3931 39.9585 33.3465H45.4323V38.8628ZM59.8947 24.2447H39.9585V4.15383C50.6584 4.836 59.2177 13.4618 59.8947 24.2447ZM59.8674 27.0028C59.2296 33.2132 54.3317 38.1491 48.1692 38.7918V27.0028H59.8674ZM43.5165 27.0297C41.5515 27.0297 39.9585 28.635 39.9585 30.6153H43.5165V27.0297Z" fill="#2563eb"/>
</svg>
